<svg width="22" height="22" viewBox="0 0 22 22" fill="none" xmlns="http://www.w3.org/2000/svg">
<g style="mix-blend-mode:luminosity" clip-path="url(#clip0_2363_9710)" filter="url(#filter0_i_2363_9710)">
<g style="mix-blend-mode:luminosity">
<path fill-rule="evenodd" clip-rule="evenodd" d="M6.05207 0.0917237L6.05221 0.0915527L6.05236 0.0917248L8.9891 0.103568L15.6183 7.23738L18.2095 6.21109L20.88 7.43475L19.7716 10.1551L18.7176 10.5726L21.9916 14.0958L21.8542 17.0302L18.9167 17.0183L14.4848 12.249L8.18613 14.7437V20.1995L6.05221 21.9049L3.9183 20.1995V16.4341L2.75312 16.8956L0.712402 15.4224L1.19102 12.9515L3.9183 11.8713V2.64962L6.05156 0.0923378L6.05159 0.0917217L6.05207 0.0917237ZM8.18613 5.47087V10.181L11.3855 8.91382L8.18613 5.47087Z" fill="#26451F"/>
</g>
</g>
<defs>
<filter id="filter0_i_2363_9710" x="0" y="0" width="22" height="22.4444" filterUnits="userSpaceOnUse" color-interpolation-filters="sRGB">
<feFlood flood-opacity="0" result="BackgroundImageFix"/>
<feBlend mode="normal" in="SourceGraphic" in2="BackgroundImageFix" result="shape"/>
<feColorMatrix in="SourceAlpha" type="matrix" values="0 0 0 0 0 0 0 0 0 0 0 0 0 0 0 0 0 0 127 0" result="hardAlpha"/>
<feOffset dy="0.444407"/>
<feGaussianBlur stdDeviation="0.222203"/>
<feComposite in2="hardAlpha" operator="arithmetic" k2="-1" k3="1"/>
<feColorMatrix type="matrix" values="0 0 0 0 0.05 0 0 0 0 0.05 0 0 0 0 0.05 0 0 0 0.25 0"/>
<feBlend mode="normal" in2="shape" result="effect1_innerShadow_2363_9710"/>
</filter>
<clipPath id="clip0_2363_9710">
<rect width="22" height="22" fill="white"/>
</clipPath>
</defs>
</svg>
