<svg width="64" height="64" viewBox="0 0 64 64" fill="none" xmlns="http://www.w3.org/2000/svg">
<g clip-path="url(#clip0_2149_10239)">
<path d="M33.3331 46.5852C24.5555 46.5852 17.4146 39.4442 17.4146 30.6666C17.4146 21.889 24.5555 14.748 33.3331 14.748C42.1107 14.748 49.2517 21.889 49.2517 30.6666C49.2517 39.4442 42.1107 46.5852 33.3331 46.5852Z" fill="#33323B"/>
<path d="M16 62C8.28 62 2 55.72 2 48C2 40.28 8.28 34 16 34C23.72 34 30 40.28 30 48C30 55.72 23.72 62 16 62Z" fill="#DDEDE2"/>
<path d="M16 64C7.176 64 0 56.824 0 48C0 39.176 7.176 32 16 32C24.824 32 32 39.176 32 48C32 56.824 24.824 64 16 64ZM16 36C9.384 36 4 41.384 4 48C4 54.616 9.384 60 16 60C22.616 60 28 54.616 28 48C28 41.384 22.616 36 16 36Z" fill="#DDEDE2"/>
<path d="M38.6665 49.8667C38.1904 49.8631 37.7311 49.69 37.3711 49.3784C37.0111 49.0669 36.7738 48.6372 36.7019 48.1665C36.63 47.6959 36.7281 47.215 36.9787 46.8101C37.2292 46.4053 37.6158 46.1029 38.0692 45.9573C41.3373 44.9521 44.1961 42.9235 46.2241 40.1705C48.252 37.4176 49.342 34.0859 49.3332 30.6667C49.3332 21.8427 42.1572 14.6667 33.3332 14.6667C29.914 14.6568 26.5822 15.746 23.8292 17.7736C21.0761 19.8012 19.0475 22.6599 18.0425 25.928C17.9662 26.1799 17.8406 26.4142 17.6729 26.617C17.5053 26.8199 17.2989 26.9874 17.0658 27.1098C16.8328 27.2322 16.5777 27.3069 16.3155 27.3297C16.0533 27.3525 15.7892 27.3229 15.5385 27.2427C15.2878 27.1646 15.055 27.0378 14.8533 26.8697C14.6517 26.7015 14.4852 26.4953 14.3633 26.2627C14.2414 26.0301 14.1666 25.7758 14.1432 25.5143C14.1197 25.2528 14.148 24.9892 14.2265 24.7387C15.4816 20.6545 18.0163 17.082 21.4566 14.5483C24.8969 12.0145 29.0605 10.6537 33.3332 10.6667C44.3625 10.6667 53.3332 19.6373 53.3332 30.6667C53.3456 34.9391 51.985 39.1025 49.4519 42.543C46.9187 45.9835 43.3472 48.5191 39.2638 49.776C39.0703 49.8357 38.869 49.8662 38.6665 49.8667ZM33.3332 8C32.8027 8 32.294 7.78929 31.9189 7.41421C31.5439 7.03914 31.3332 6.53043 31.3332 6V2C31.3332 1.46957 31.5439 0.960859 31.9189 0.585786C32.294 0.210714 32.8027 0 33.3332 0C33.8636 0 34.3723 0.210714 34.7474 0.585786C35.1224 0.960859 35.3332 1.46957 35.3332 2V6C35.3332 6.53043 35.1224 7.03914 34.7474 7.41421C34.3723 7.78929 33.8636 8 33.3332 8ZM61.9998 32.6667H57.9998C57.4694 32.6667 56.9607 32.456 56.5856 32.0809C56.2105 31.7058 55.9998 31.1971 55.9998 30.6667C55.9998 30.1362 56.2105 29.6275 56.5856 29.2525C56.9607 28.8774 57.4694 28.6667 57.9998 28.6667H61.9998C62.5303 28.6667 63.039 28.8774 63.414 29.2525C63.7891 29.6275 63.9998 30.1362 63.9998 30.6667C63.9998 31.1971 63.7891 31.7058 63.414 32.0809C63.039 32.456 62.5303 32.6667 61.9998 32.6667ZM50.9705 15.0293C50.5746 15.0295 50.1876 14.9122 49.8585 14.6923C49.5293 14.4724 49.2728 14.1597 49.1215 13.794C48.9702 13.4282 48.9308 13.0257 49.0083 12.6375C49.0859 12.2493 49.2769 11.8929 49.5572 11.6133L52.6611 8.50667C52.8469 8.32089 53.0675 8.17352 53.3102 8.07298C53.5529 7.97244 53.8131 7.92069 54.0758 7.92069C54.3385 7.92069 54.5987 7.97244 54.8414 8.07298C55.0842 8.17352 55.3047 8.32089 55.4905 8.50667C55.6763 8.69244 55.8236 8.91299 55.9242 9.15572C56.0247 9.39845 56.0765 9.65861 56.0765 9.92133C56.0765 10.1841 56.0247 10.4442 55.9242 10.6869C55.8236 10.9297 55.6763 11.1502 55.4905 11.336L52.3865 14.4427C52.201 14.6292 51.9803 14.7771 51.7373 14.8778C51.4942 14.9785 51.2336 15.03 50.9705 15.0293ZM54.0745 53.408C53.8118 53.4086 53.5516 53.3571 53.309 53.2564C53.0664 53.1557 52.8462 53.0078 52.6611 52.8213L49.5572 49.7147C49.182 49.3395 48.9712 48.8306 48.9712 48.3C48.9712 47.7694 49.182 47.2605 49.5572 46.8853C49.9323 46.5101 50.4412 46.2994 50.9718 46.2994C51.5024 46.2994 52.0113 46.5101 52.3865 46.8853L55.4905 49.992C55.7709 50.2717 55.962 50.6284 56.0394 51.0168C56.1169 51.4053 56.0773 51.808 55.9256 52.1739C55.7739 52.5397 55.5171 52.8524 55.1875 53.0721C54.8579 53.2918 54.4706 53.4087 54.0745 53.408ZM15.6958 15.0293C15.4331 15.03 15.1729 14.9785 14.9303 14.8777C14.6877 14.777 14.4675 14.6292 14.2825 14.4427L11.1758 11.3387C10.99 11.1529 10.8427 10.9323 10.7421 10.6896C10.6416 10.4469 10.5898 10.1867 10.5898 9.924C10.5898 9.66127 10.6416 9.40112 10.7421 9.15839C10.8427 8.91566 10.99 8.69511 11.1758 8.50933C11.3616 8.32356 11.5821 8.17619 11.8249 8.07565C12.0676 7.97511 12.3278 7.92336 12.5905 7.92336C12.8532 7.92336 13.1134 7.97511 13.3561 8.07565C13.5988 8.17619 13.8194 8.32356 14.0052 8.50933L17.1092 11.616C17.3885 11.8957 17.5787 12.2519 17.6557 12.6396C17.7328 13.0274 17.6931 13.4292 17.5419 13.7945C17.3907 14.1597 17.1346 14.4719 16.806 14.6917C16.4775 14.9115 16.0911 15.029 15.6958 15.0293Z" fill="#DDEDE2"/>
<circle cx="33.5696" cy="30.4304" r="15.6824" fill="url(#paint0_radial_2149_10239)"/>
<path fill-rule="evenodd" clip-rule="evenodd" d="M6.5473 57.7892C5.6487 58.1914 5.60054 59.5249 6.56722 59.7115C7.08875 59.8121 7.62158 59.8889 8.16415 59.9401C15.8303 60.6635 22.5386 56.019 23.1475 49.5662C23.7565 43.1133 18.0355 37.2958 10.3694 36.5724C9.82673 36.5212 9.2889 36.4968 8.75769 36.4982C7.77318 36.5006 7.57103 37.8196 8.37852 38.3828C11.8875 40.8304 13.9902 44.6236 13.6087 48.666C13.2273 52.7084 10.4521 56.0412 6.5473 57.7892Z" fill="#110D2B"/>
<circle cx="16.8555" cy="46.1128" r="1.36523" fill="#DDEDE2"/>
<circle cx="16.8555" cy="52.3577" r="1.36523" fill="#DDEDE2"/>
<circle cx="16.1776" cy="46.4516" r="0.338762" fill="#110D2B"/>
<circle cx="16.3388" cy="52.9384" r="0.338762" fill="#110D2B"/>
</g>
<defs>
<radialGradient id="paint0_radial_2149_10239" cx="0" cy="0" r="1" gradientUnits="userSpaceOnUse" gradientTransform="translate(29.139 29.2323) rotate(66.8536) scale(11.2713)">
<stop stop-color="#4D4D4D"/>
<stop offset="1" stop-color="#110D2B"/>
</radialGradient>
<clipPath id="clip0_2149_10239">
<rect width="64" height="64" fill="white"/>
</clipPath>
</defs>
</svg>
