<svg width="21" height="21" viewBox="0 0 21 21" fill="none" xmlns="http://www.w3.org/2000/svg">
<g id="eva:download-outline">
<path id="Vector" d="M16.625 15.75H4.375C3.89175 15.75 3.5 16.1418 3.5 16.625C3.5 17.1082 3.89175 17.5 4.375 17.5H16.625C17.1082 17.5 17.5 17.1082 17.5 16.625C17.5 16.1418 17.1082 15.75 16.625 15.75Z" fill="#FDFBE3"/>
<path id="Vector_2" d="M3.5 14.875V16.625C3.5 17.1082 3.89175 17.5 4.375 17.5C4.85825 17.5 5.25 17.1082 5.25 16.625V14.875C5.25 14.3918 4.85825 14 4.375 14C3.89175 14 3.5 14.3918 3.5 14.875Z" fill="#FDFBE3"/>
<path id="Vector_3" d="M15.75 14.875V16.625C15.75 17.1082 16.1418 17.5 16.625 17.5C17.1082 17.5 17.5 17.1082 17.5 16.625V14.875C17.5 14.3918 17.1082 14 16.625 14C16.1418 14 15.75 14.3918 15.75 14.875Z" fill="#FDFBE3"/>
<path id="Vector_4" d="M10.4998 13.125C10.3184 13.1264 10.141 13.0713 9.99227 12.9675L6.49227 10.5C6.30363 10.3662 6.17565 10.1631 6.1363 9.93521C6.09695 9.7073 6.14943 9.47308 6.28227 9.28375C6.34859 9.18912 6.43299 9.10856 6.5306 9.04672C6.62822 8.98488 6.73712 8.94299 6.85101 8.92347C6.9649 8.90394 7.08154 8.90717 7.19418 8.93297C7.30681 8.95876 7.41323 9.00661 7.50727 9.07375L10.4998 11.165L13.4748 8.925C13.6604 8.78576 13.8938 8.72598 14.1235 8.7588C14.3533 8.79162 14.5605 8.91435 14.6998 9.1C14.839 9.28565 14.8988 9.51901 14.866 9.74875C14.8332 9.97848 14.7104 10.1858 14.5248 10.325L11.0248 12.95C10.8733 13.0636 10.6891 13.125 10.4998 13.125Z" fill="#FDFBE3"/>
<path id="Vector_5" d="M10.5 11.375C10.2679 11.375 10.0454 11.2828 9.88128 11.1187C9.71719 10.9546 9.625 10.7321 9.625 10.5V3.5C9.625 3.26794 9.71719 3.04538 9.88128 2.88128C10.0454 2.71719 10.2679 2.625 10.5 2.625C10.7321 2.625 10.9546 2.71719 11.1187 2.88128C11.2828 3.04538 11.375 3.26794 11.375 3.5V10.5C11.375 10.7321 11.2828 10.9546 11.1187 11.1187C10.9546 11.2828 10.7321 11.375 10.5 11.375Z" fill="#FDFBE3"/>
</g>
</svg>
