<svg width="64" height="64" viewBox="0 0 64 64" fill="none" xmlns="http://www.w3.org/2000/svg">
<g clip-path="url(#clip0_2149_10185)">
<path d="M33.3334 48.304C23.608 48.304 15.696 40.392 15.696 30.6666C15.696 20.9413 23.608 13.0293 33.3334 13.0293C43.0587 13.0293 50.9707 20.9413 50.9707 30.6666C50.9707 40.392 43.0587 48.304 33.3334 48.304Z" fill="#FFE577"/>
<path d="M16 62C8.28 62 2 55.72 2 48C2 40.28 8.28 34 16 34C23.72 34 30 40.28 30 48C30 55.72 23.72 62 16 62Z" fill="#78A5FF"/>
<path d="M16 64C7.176 64 0 56.824 0 48C0 39.176 7.176 32 16 32C24.824 32 32 39.176 32 48C32 56.824 24.824 64 16 64ZM16 36C9.384 36 4 41.384 4 48C4 54.616 9.384 60 16 60C22.616 60 28 54.616 28 48C28 41.384 22.616 36 16 36Z" fill="black"/>
<path d="M38.6667 49.8667C38.1906 49.8631 37.7314 49.69 37.3713 49.3784C37.0113 49.0669 36.7741 48.6372 36.7021 48.1665C36.6302 47.6959 36.7284 47.215 36.9789 46.8101C37.2295 46.4053 37.6161 46.1029 38.0694 45.9573C41.3376 44.9521 44.1963 42.9235 46.2243 40.1705C48.2523 37.4176 49.3422 34.0859 49.3334 30.6667C49.3334 21.8427 42.1574 14.6667 33.3334 14.6667C29.9143 14.6568 26.5825 15.746 23.8294 17.7736C21.0763 19.8012 19.0477 22.6599 18.0427 25.928C17.9665 26.1799 17.8408 26.4142 17.6732 26.617C17.5055 26.8199 17.2991 26.9874 17.0661 27.1098C16.833 27.2322 16.578 27.3069 16.3158 27.3297C16.0535 27.3525 15.7894 27.3229 15.5387 27.2427C15.288 27.1646 15.0552 27.0378 14.8536 26.8697C14.6519 26.7015 14.4854 26.4953 14.3636 26.2627C14.2417 26.0301 14.1669 25.7758 14.1434 25.5143C14.1199 25.2528 14.1482 24.9892 14.2267 24.7387C15.4819 20.6545 18.0166 17.082 21.4569 14.5483C24.8971 12.0145 29.0608 10.6537 33.3334 10.6667C44.3627 10.6667 53.3334 19.6373 53.3334 30.6667C53.3458 34.9391 51.9852 39.1025 49.4521 42.543C46.919 45.9835 43.3475 48.5191 39.2641 49.776C39.0705 49.8357 38.8692 49.8662 38.6667 49.8667ZM33.3334 8C32.803 8 32.2943 7.78929 31.9192 7.41421C31.5441 7.03914 31.3334 6.53043 31.3334 6V2C31.3334 1.46957 31.5441 0.960859 31.9192 0.585786C32.2943 0.210714 32.803 0 33.3334 0C33.8638 0 34.3725 0.210714 34.7476 0.585786C35.1227 0.960859 35.3334 1.46957 35.3334 2V6C35.3334 6.53043 35.1227 7.03914 34.7476 7.41421C34.3725 7.78929 33.8638 8 33.3334 8ZM62.0001 32.6667H58.0001C57.4696 32.6667 56.9609 32.456 56.5858 32.0809C56.2108 31.7058 56.0001 31.1971 56.0001 30.6667C56.0001 30.1362 56.2108 29.6275 56.5858 29.2525C56.9609 28.8774 57.4696 28.6667 58.0001 28.6667H62.0001C62.5305 28.6667 63.0392 28.8774 63.4143 29.2525C63.7893 29.6275 64.0001 30.1362 64.0001 30.6667C64.0001 31.1971 63.7893 31.7058 63.4143 32.0809C63.0392 32.456 62.5305 32.6667 62.0001 32.6667ZM50.9707 15.0293C50.5749 15.0295 50.1879 14.9122 49.8587 14.6923C49.5296 14.4724 49.2731 14.1597 49.1217 13.794C48.9704 13.4282 48.931 13.0257 49.0086 12.6375C49.0861 12.2493 49.2771 11.8929 49.5574 11.6133L52.6614 8.50667C52.8472 8.32089 53.0677 8.17352 53.3105 8.07298C53.5532 7.97244 53.8133 7.92069 54.0761 7.92069C54.3388 7.92069 54.5989 7.97244 54.8417 8.07298C55.0844 8.17352 55.305 8.32089 55.4907 8.50667C55.6765 8.69244 55.8239 8.91299 55.9244 9.15572C56.025 9.39845 56.0767 9.65861 56.0767 9.92133C56.0767 10.1841 56.025 10.4442 55.9244 10.6869C55.8239 10.9297 55.6765 11.1502 55.4907 11.336L52.3867 14.4427C52.2012 14.6292 51.9806 14.7771 51.7375 14.8778C51.4944 14.9785 51.2338 15.03 50.9707 15.0293ZM54.0747 53.408C53.812 53.4086 53.5518 53.3571 53.3092 53.2564C53.0666 53.1557 52.8464 53.0078 52.6614 52.8213L49.5574 49.7147C49.1822 49.3395 48.9714 48.8306 48.9714 48.3C48.9714 47.7694 49.1822 47.2605 49.5574 46.8853C49.9326 46.5101 50.4415 46.2994 50.9721 46.2994C51.5027 46.2994 52.0115 46.5101 52.3867 46.8853L55.4907 49.992C55.7712 50.2717 55.9622 50.6284 56.0397 51.0168C56.1171 51.4053 56.0775 51.808 55.9259 52.1739C55.7742 52.5397 55.5173 52.8524 55.1877 53.0721C54.8582 53.2918 54.4708 53.4087 54.0747 53.408ZM15.6961 15.0293C15.4334 15.03 15.1732 14.9785 14.9306 14.8777C14.6879 14.777 14.4677 14.6292 14.2827 14.4427L11.1761 11.3387C10.9903 11.1529 10.8429 10.9323 10.7424 10.6896C10.6418 10.4469 10.5901 10.1867 10.5901 9.924C10.5901 9.66127 10.6418 9.40112 10.7424 9.15839C10.8429 8.91566 10.9903 8.69511 11.1761 8.50933C11.3618 8.32356 11.5824 8.17619 11.8251 8.07565C12.0678 7.97511 12.328 7.92336 12.5907 7.92336C12.8535 7.92336 13.1136 7.97511 13.3563 8.07565C13.5991 8.17619 13.8196 8.32356 14.0054 8.50933L17.1094 11.616C17.3887 11.8957 17.5789 12.2519 17.656 12.6396C17.733 13.0274 17.6934 13.4292 17.5422 13.7945C17.3909 14.1597 17.1349 14.4719 16.8063 14.6917C16.4777 14.9115 16.0914 15.029 15.6961 15.0293Z" fill="black"/>
</g>
<defs>
<clipPath id="clip0_2149_10185">
<rect width="64" height="64" fill="white"/>
</clipPath>
</defs>
</svg>
