<svg width="107" height="107" viewBox="0 0 107 107" fill="none" xmlns="http://www.w3.org/2000/svg">
<g id="light">
<path id="Vector" d="M83.1132 47.0494C83.1132 62.4383 74.4271 80.8537 59.3898 80.8537C44.3525 80.8537 32.1621 68.3768 32.1621 52.9879C32.1621 37.599 44.3525 25.1221 59.3898 25.1221C74.4271 25.1221 83.1132 31.6605 83.1132 47.0494Z" fill="#FFE577"/>
<path id="Vector_2" d="M59.2314 99.3572H47.7671C45.0042 99.3572 42.035 97.2095 42.035 92.5015V84.3504C42.035 80.6474 40.1777 77.0591 36.9372 74.5026C33.6816 71.9545 31.0657 68.6818 29.2977 64.9447C27.5297 61.2077 26.6584 57.1096 26.7531 52.9765C27.0282 38.7226 38.8479 26.9602 53.1018 26.7501C60.3281 26.6966 67.1341 29.3792 72.2777 34.4464C74.8111 36.9294 76.8215 39.8946 78.1906 43.167C79.5597 46.4394 80.2597 49.9528 80.2492 53.5C80.2549 57.462 79.3774 61.3754 77.6805 64.9557C75.9836 68.5359 73.51 71.6928 70.4396 74.1969C66.9583 77.0477 64.9635 80.9799 64.9635 84.9848V93.625C64.9635 96.7853 62.3917 99.3572 59.2314 99.3572ZM53.4992 30.5715H53.1591C41.1446 30.7434 30.8038 41.0384 30.5745 53.0453C30.4925 56.5883 31.2388 60.1016 32.7541 63.3053C34.2694 66.509 36.5117 69.3147 39.3026 71.499C43.468 74.7854 45.8564 79.4705 45.8564 84.3504V92.5015C45.8564 93.2123 45.994 95.5357 47.7671 95.5357H59.2314C59.7381 95.5357 60.2241 95.3344 60.5825 94.9761C60.9408 94.6178 61.1421 94.1318 61.1421 93.625V84.9848C61.1421 79.8258 63.649 74.816 68.0168 71.2391C70.6496 69.0938 72.7708 66.3882 74.2258 63.3195C75.6808 60.2508 76.4331 56.8962 76.4278 53.5C76.4374 50.4599 75.8377 47.4486 74.6642 44.644C73.4906 41.8394 71.767 39.2984 69.5951 37.1711C65.3149 32.9274 59.5266 30.5541 53.4992 30.5715Z" fill="#D1EBD9"/>
<path id="Vector_3" d="M63.0455 87.8931H43.9384C43.4316 87.8931 42.9456 87.6918 42.5873 87.3334C42.2289 86.9751 42.0276 86.4891 42.0276 85.9824C42.0276 85.4756 42.2289 84.9896 42.5873 84.6313C42.9456 84.2729 43.4316 84.0716 43.9384 84.0716H63.0455C63.5523 84.0716 64.0383 84.2729 64.3966 84.6313C64.7549 84.9896 64.9562 85.4756 64.9562 85.9824C64.9562 86.4891 64.7549 86.9751 64.3966 87.3334C64.0383 87.6918 63.5523 87.8931 63.0455 87.8931ZM53.4919 19.1074C52.9852 19.1074 52.4992 18.906 52.1408 18.5477C51.7825 18.1894 51.5812 17.7034 51.5812 17.1966V9.55378C51.5812 9.04703 51.7825 8.56103 52.1408 8.2027C52.4992 7.84437 52.9852 7.64307 53.4919 7.64307C53.9987 7.64307 54.4847 7.84437 54.843 8.2027C55.2013 8.56103 55.4026 9.04703 55.4026 9.55378V17.1966C55.4026 17.7034 55.2013 18.1894 54.843 18.5477C54.4847 18.906 53.9987 19.1074 53.4919 19.1074ZM79.1605 29.7424C78.7829 29.7423 78.4137 29.6303 78.0997 29.4206C77.7857 29.2109 77.5408 28.9128 77.3961 28.5641C77.2514 28.2153 77.2132 27.8315 77.2865 27.461C77.3597 27.0906 77.5411 26.7501 77.8077 26.4827L83.215 21.0754C83.5754 20.7273 84.058 20.5347 84.559 20.5391C85.06 20.5435 85.5392 20.7444 85.8935 21.0987C86.2477 21.4529 86.4487 21.9322 86.4531 22.4331C86.4574 22.9341 86.2648 23.4168 85.9168 23.7771L80.5094 29.1845C80.3324 29.3617 80.1221 29.5022 79.8906 29.5979C79.6591 29.6937 79.411 29.7428 79.1605 29.7424ZM97.4384 55.4109H89.7955C89.2888 55.4109 88.8028 55.2096 88.4444 54.8513C88.0861 54.493 87.8848 54.007 87.8848 53.5002C87.8848 52.9935 88.0861 52.5075 88.4444 52.1491C88.8028 51.7908 89.2888 51.5895 89.7955 51.5895H97.4384C97.9451 51.5895 98.4311 51.7908 98.7895 52.1491C99.1478 52.5075 99.3491 52.9935 99.3491 53.5002C99.3491 54.007 99.1478 54.493 98.7895 54.8513C98.4311 55.2096 97.9451 55.4109 97.4384 55.4109ZM84.5678 86.4868C84.0609 86.4869 83.5745 86.2863 83.215 85.9289L77.8077 80.5215C77.4596 80.1612 77.2671 79.6785 77.2714 79.1775C77.2758 78.6766 77.4767 78.1973 77.831 77.8431C78.1852 77.4888 78.6645 77.2879 79.1654 77.2835C79.6664 77.2792 80.1491 77.4717 80.5094 77.8198L85.9168 83.2271C86.1831 83.4943 86.3644 83.8344 86.4378 84.2045C86.5112 84.5746 86.4734 84.9581 86.3291 85.3067C86.1848 85.6553 85.9406 85.9534 85.6271 86.1634C85.3137 86.3734 84.9451 86.486 84.5678 86.4868ZM22.4161 86.4868C22.0384 86.4867 21.6693 86.3747 21.3553 86.165C21.0413 85.9553 20.7964 85.6572 20.6517 85.3085C20.5069 84.9597 20.4688 84.5759 20.542 84.2054C20.6153 83.835 20.7967 83.4945 21.0633 83.2271L26.4706 77.8198C26.831 77.4717 27.3136 77.2792 27.8146 77.2835C28.3156 77.2879 28.7948 77.4888 29.1491 77.8431C29.5033 78.1973 29.7043 78.6766 29.7086 79.1775C29.713 79.6785 29.5204 80.1612 29.1723 80.5215L23.765 85.9289C23.588 86.1061 23.3777 86.2466 23.1462 86.3423C22.9147 86.4381 22.6666 86.4872 22.4161 86.4868ZM17.1883 55.4109H9.54548C9.03873 55.4109 8.55273 55.2096 8.1944 54.8513C7.83607 54.493 7.63477 54.007 7.63477 53.5002C7.63477 52.9935 7.83607 52.5075 8.1944 52.1491C8.55273 51.7908 9.03873 51.5895 9.54548 51.5895H17.1883C17.6951 51.5895 18.1811 51.7908 18.5394 52.1491C18.8977 52.5075 19.0991 52.9935 19.0991 53.5002C19.0991 54.007 18.8977 54.493 18.5394 54.8513C18.1811 55.2096 17.6951 55.4109 17.1883 55.4109ZM27.8234 29.7424C27.3164 29.7425 26.8301 29.5419 26.4706 29.1845L21.0671 23.7771C20.719 23.4168 20.5265 22.9341 20.5308 22.4331C20.5352 21.9322 20.7361 21.4529 21.0904 21.0987C21.4446 20.7444 21.9239 20.5435 22.4248 20.5391C22.9258 20.5347 23.4085 20.7273 23.7688 21.0754L29.1762 26.4827C29.4428 26.7501 29.6241 27.0906 29.6974 27.461C29.7706 27.8315 29.7325 28.2153 29.5878 28.5641C29.443 28.9128 29.1982 29.2109 28.8841 29.4206C28.5701 29.6303 28.201 29.7423 27.8234 29.7424ZM68.7776 55.4109C68.2709 55.4109 67.7849 55.2096 67.4266 54.8513C67.0682 54.493 66.8669 54.007 66.8669 53.5002C66.8669 46.1249 60.8673 40.1252 53.4919 40.1252C52.9852 40.1252 52.4992 39.9239 52.1408 39.5656C51.7825 39.2073 51.5812 38.7213 51.5812 38.2145C51.5812 37.7077 51.7825 37.2217 52.1408 36.8634C52.4992 36.5051 52.9852 36.3038 53.4919 36.3038C62.9729 36.3038 70.6884 44.0192 70.6884 53.5002C70.6884 54.007 70.4871 54.493 70.1287 54.8513C69.7704 55.2096 69.2844 55.4109 68.7776 55.4109Z" fill="#D1EBD9"/>
</g>
</svg>
