<svg width="21" height="21" viewBox="0 0 21 21" fill="none" xmlns="http://www.w3.org/2000/svg">
<g clip-path="url(#clip0_2180_274)">
<path d="M1.90083 11.1311L1.79583 9.55614L7.75983 8.71614C7.71783 8.05814 7.48683 7.51214 7.06683 7.07814C6.64683 6.63014 6.05183 6.40614 5.28183 6.40614C4.49783 6.40614 3.84683 6.68614 3.32883 7.24614C2.81083 7.80614 2.54483 8.60414 2.53083 9.64014L2.57283 10.4381C2.68483 11.4321 3.04183 12.1811 3.64383 12.6851C4.24583 13.1751 5.03683 13.4201 6.01683 13.4201C6.60483 13.4201 7.14383 13.3291 7.63383 13.1471C8.12383 12.9651 8.51583 12.7691 8.80983 12.5591C8.97783 12.6571 9.11083 12.7901 9.20883 12.9581C9.32083 13.1261 9.37683 13.3081 9.37683 13.5041C9.37683 13.8121 9.22283 14.0921 8.91483 14.3441C8.60683 14.5961 8.18683 14.7921 7.65483 14.9321C7.13683 15.0721 6.54883 15.1421 5.89083 15.1421C4.81283 15.1421 3.86783 14.9461 3.05583 14.5541C2.24383 14.1481 1.61383 13.5531 1.16583 12.7691C0.717828 11.9711 0.493828 10.9981 0.493828 9.85014C0.493828 9.02414 0.612828 8.29614 0.850828 7.66614C1.10283 7.02214 1.44583 6.48314 1.87983 6.04914C2.31383 5.61514 2.82483 5.28614 3.41283 5.06214C4.00083 4.83814 4.63083 4.72614 5.30283 4.72614C6.18483 4.72614 6.96183 4.91514 7.63383 5.29314C8.31983 5.65714 8.85183 6.16814 9.22983 6.82614C9.60783 7.48414 9.79683 8.23314 9.79683 9.07314C9.79683 9.42314 9.71283 9.68214 9.54483 9.85014C9.37683 10.0041 9.13883 10.1021 8.83083 10.1441L1.90083 11.1311ZM15.1371 9.11514L15.5361 8.98914C16.0961 8.27514 16.6211 7.60314 17.1111 6.97314C17.6011 6.32914 18.1051 5.63614 18.6231 4.89414C18.6931 4.88014 18.7421 4.87314 18.7701 4.87314C18.8121 4.87314 18.8541 4.87314 18.8961 4.87314C19.2741 4.87314 19.5751 4.95714 19.7991 5.12514C20.0231 5.29314 20.1351 5.51714 20.1351 5.79714C20.1351 6.00714 20.0861 6.20314 19.9881 6.38514C19.9041 6.55314 19.7501 6.77014 19.5261 7.03614C19.0921 7.56814 18.6441 8.11414 18.1821 8.67414C17.7201 9.22014 17.2651 9.75214 16.8171 10.2701L16.1451 10.7321C15.6411 11.4181 15.1231 12.1251 14.5911 12.8531C14.0731 13.5671 13.5621 14.2741 13.0581 14.9741C13.0301 14.9741 12.9741 14.9741 12.8901 14.9741C12.8201 14.9741 12.7641 14.9741 12.7221 14.9741C12.3161 14.9741 12.0011 14.8831 11.7771 14.7011C11.5671 14.5191 11.4621 14.2951 11.4621 14.0291C11.4621 13.8611 11.4971 13.7001 11.5671 13.5461C11.6511 13.3921 11.8121 13.1751 12.0501 12.8951C12.5401 12.2511 13.0511 11.6211 13.5831 11.0051C14.1151 10.3751 14.6331 9.74514 15.1371 9.11514ZM16.4391 9.22014L16.9221 9.51414C17.4821 10.2561 18.0491 10.9911 18.6231 11.7191C19.1971 12.4471 19.7641 13.1821 20.3241 13.9241C20.2961 14.2601 20.1771 14.5261 19.9671 14.7221C19.7711 14.9041 19.5121 14.9951 19.1901 14.9951C18.8961 14.9951 18.6511 14.9181 18.4551 14.7641C18.2591 14.5961 18.0491 14.3651 17.8251 14.0711C17.4331 13.5111 17.0201 12.9231 16.5861 12.3071C16.1521 11.6911 15.7321 11.1101 15.3261 10.5641L14.8431 10.1441C14.2411 9.41614 13.6671 8.71614 13.1211 8.04414C12.5751 7.37214 12.0221 6.68614 11.4621 5.98614C11.5321 5.63614 11.6651 5.36314 11.8611 5.16714C12.0571 4.97114 12.3021 4.87314 12.5961 4.87314C12.8901 4.87314 13.1211 4.95014 13.2891 5.10414C13.4571 5.24414 13.6321 5.43314 13.8141 5.67114C14.2201 6.21714 14.6401 6.79814 15.0741 7.41414C15.5081 8.03014 15.9631 8.63214 16.4391 9.22014Z" fill="#072600"/>
</g>
<defs>
<clipPath id="clip0_2180_274">
<rect width="21" height="21" fill="white"/>
</clipPath>
</defs>
</svg>
