<svg width="21" height="22" viewBox="0 0 21 22" fill="none" xmlns="http://www.w3.org/2000/svg">
<g id="fa6-brands:figma">
<path id="Vector" d="M3.57422 4.82619C3.57422 2.65629 5.3333 0.897217 7.50323 0.897217H14.2449C16.4148 0.897217 18.1739 2.65629 18.1739 4.82619C18.1739 6.20021 17.4686 7.40951 16.4003 8.11174C17.4686 8.81401 18.1739 10.0233 18.1739 11.3973C18.1739 13.5672 16.4148 15.3263 14.2449 15.3263H14.1596C13.1423 15.3263 12.2153 14.9397 11.5176 14.3054V17.9256C11.5176 20.1244 9.71249 21.8972 7.52439 21.8972C5.35987 21.8972 3.57422 20.1435 3.57422 17.9682C3.57422 16.5943 4.27948 15.385 5.34773 14.6828C4.27944 13.9805 3.57422 12.7712 3.57422 11.3973C3.57422 10.0233 4.27952 8.81401 5.34786 8.11174C4.27952 7.40951 3.57422 6.20021 3.57422 4.82619ZM10.2306 8.75528H7.50323C6.04406 8.75528 4.86121 9.93817 4.86121 11.3973C4.86121 12.8508 6.03495 14.0302 7.48633 14.0393L7.50323 14.0392H10.2306V8.75528ZM11.5176 11.3973C11.5176 12.8564 12.7004 14.0393 14.1596 14.0393H14.2449C15.7041 14.0393 16.8869 12.8564 16.8869 11.3973C16.8869 9.93817 15.7041 8.75528 14.2449 8.75528H14.1596C12.7004 8.75528 11.5176 9.93817 11.5176 11.3973ZM7.50323 15.3263L7.48633 15.3263C6.03495 15.3353 4.86121 16.5147 4.86121 17.9682C4.86121 19.422 6.05989 20.6102 7.52439 20.6102C9.01252 20.6102 10.2306 19.4029 10.2306 17.9256V15.3263H7.50323ZM7.50323 2.18421C6.04406 2.18421 4.86121 3.3671 4.86121 4.82619C4.86121 6.28536 6.0441 7.46821 7.50323 7.46821H10.2306V2.18416L7.50323 2.18421ZM11.5176 7.46821H14.2449C15.7041 7.46821 16.8869 6.28536 16.8869 4.82619C16.8869 3.36705 15.7041 2.18421 14.2449 2.18421H11.5176V7.46821Z" fill="#072600"/>
</g>
</svg>
