<svg width="21" height="21" viewBox="0 0 21 21" fill="none" xmlns="http://www.w3.org/2000/svg">
<g id="iconoir:git">
<g id="Group">
<path id="Vector" d="M10.5 8.75C10.8481 8.75 11.1819 8.61172 11.4281 8.36558C11.6742 8.11944 11.8125 7.7856 11.8125 7.4375C11.8125 7.0894 11.6742 6.75556 11.4281 6.50942C11.1819 6.26328 10.8481 6.125 10.5 6.125C10.1519 6.125 9.81806 6.26328 9.57192 6.50942C9.32578 6.75556 9.1875 7.0894 9.1875 7.4375C9.1875 7.7856 9.32578 8.11944 9.57192 8.36558C9.81806 8.61172 10.1519 8.75 10.5 8.75ZM10.5 8.75V13.125M10.5 13.125C10.8481 13.125 11.1819 13.2633 11.4281 13.5094C11.6742 13.7556 11.8125 14.0894 11.8125 14.4375C11.8125 14.7856 11.6742 15.1194 11.4281 15.3656C11.1819 15.6117 10.8481 15.75 10.5 15.75C10.1519 15.75 9.81806 15.6117 9.57192 15.3656C9.32578 15.1194 9.1875 14.7856 9.1875 14.4375C9.1875 14.0894 9.32578 13.7556 9.57192 13.5094C9.81806 13.2633 10.1519 13.125 10.5 13.125ZM7.21875 4.15625L9.1875 6.125M11.5938 8.53125L12.9062 9.84375M14.2188 12.4688C14.5668 12.4687 14.9007 12.3305 15.1468 12.0843C15.393 11.8382 15.5312 11.5043 15.5312 11.1562C15.5312 10.8082 15.393 10.4743 15.1468 10.2282C14.9007 9.98203 14.5668 9.84375 14.2188 9.84375C13.8707 9.84375 13.5368 9.98203 13.2907 10.2282C13.0445 10.4743 12.9063 10.8082 12.9062 11.1562C12.9063 11.5043 13.0445 11.8382 13.2907 12.0843C13.5368 12.3305 13.8707 12.4688 14.2188 12.4688Z" stroke="#072600" stroke-width="1.3125" stroke-linecap="round" stroke-linejoin="round"/>
<path id="Vector_2" d="M10.1288 1.24607C10.2273 1.14775 10.3607 1.09253 10.4998 1.09253C10.6389 1.09253 10.7724 1.14775 10.8708 1.24607L19.7538 10.1291C19.8521 10.2275 19.9074 10.3609 19.9074 10.5001C19.9074 10.6392 19.8521 10.7726 19.7538 10.8711L10.8708 19.7541C10.7724 19.8524 10.6389 19.9076 10.4998 19.9076C10.3607 19.9076 10.2273 19.8524 10.1288 19.7541L1.24582 10.8711C1.14751 10.7726 1.09229 10.6392 1.09229 10.5001C1.09229 10.3609 1.14751 10.2275 1.24582 10.1291L10.1288 1.24607Z" stroke="#072600" stroke-width="1.3125" stroke-linecap="round" stroke-linejoin="round"/>
</g>
</g>
</svg>
