<svg width="21" height="21" viewBox="0 0 21 21" fill="none" xmlns="http://www.w3.org/2000/svg">
<g id="hugeicons:github">
<g id="Group">
<path id="Vector" d="M8.75 17.997C5.74963 19.0094 3.24975 17.997 1.75 14.875" stroke="#072600" stroke-width="1.3125" stroke-linecap="round" stroke-linejoin="round"/>
<path id="Vector_2" d="M8.75 19.25V16.4132C8.75 15.89 8.911 15.435 9.17 15.0237C9.3485 14.742 9.226 14.3412 8.90488 14.2537C6.24225 13.5205 4.375 12.3436 4.375 8.43934C4.375 7.42434 4.7075 6.47059 5.292 5.63934C5.43725 5.43284 5.51075 5.32959 5.52825 5.23684C5.54575 5.14234 5.51512 5.02071 5.45387 4.77571C5.20625 3.78171 5.22288 2.72559 5.59388 1.77446C5.59388 1.77446 6.36125 1.52334 8.10863 2.61446C8.50763 2.86384 8.70713 2.98896 8.883 3.01696C9.05888 3.04496 9.29337 2.98634 9.76237 2.86909C10.4329 2.70283 11.1216 2.62083 11.8125 2.62496C12.5033 2.62201 13.1919 2.7043 13.8626 2.86996C14.3316 2.98721 14.567 3.04496 14.7429 3.01784C14.9179 2.98984 15.1174 2.86471 15.5164 2.61534C17.2637 1.52421 18.0311 1.77534 18.0311 1.77534C18.4021 2.72646 18.4188 3.78259 18.1711 4.77659C18.1099 5.02159 18.0801 5.14409 18.0976 5.23684C18.1151 5.32959 18.1877 5.43371 18.333 5.64021C18.9175 6.47146 19.25 7.42521 19.25 8.44021C19.25 12.3445 17.3827 13.5213 14.7201 14.2528C14.399 14.3412 14.2765 14.742 14.455 15.0228C14.714 15.4341 14.875 15.8891 14.875 16.4132V19.25" stroke="#072600" stroke-width="1.3125" stroke-linecap="round" stroke-linejoin="round"/>
</g>
</g>
</svg>
