<svg width="21" height="21" viewBox="0 0 21 21" fill="none" xmlns="http://www.w3.org/2000/svg">
<g id="hugeicons:html-5">
<g id="Group">
<path id="Vector" d="M15.4893 0.902832H6.38386C4.07737 0.902832 2.92359 0.902832 2.28911 1.65887C1.65464 2.4149 1.84018 3.57188 2.207 5.88691L3.67322 15.1225C3.98993 17.1165 4.44845 17.7148 6.33161 18.4505L9.4176 19.6566C10.1683 19.9498 10.5437 20.097 10.9361 20.097C11.3285 20.097 11.7038 19.9498 12.4545 19.6566L15.5405 18.4516C17.4237 17.7158 17.8822 17.1176 18.1989 15.1225L19.6651 5.88691C20.032 3.57295 20.2164 2.4149 19.582 1.65887C18.9507 0.902832 17.7969 0.902832 15.4893 0.902832Z" stroke="#072600" stroke-width="1.3125" stroke-linecap="round" stroke-linejoin="round"/>
<path id="Vector_2" d="M14.1371 6.23462H8.83416C7.86592 6.23462 7.67078 6.43616 7.75715 7.40013L7.95016 9.54028C8.02481 10.3528 8.21035 10.5149 9.02717 10.5149H12.3915C13.3778 10.5149 13.574 10.7218 13.4663 11.7007L13.2851 13.3386C13.2126 13.9976 13.1923 14.0232 12.5589 14.2364L11.242 14.679C10.8975 14.7941 10.8922 14.7941 10.5478 14.679L9.08262 14.1863C8.68807 14.0541 8.55691 13.8931 8.48546 13.4985" stroke="#072600" stroke-width="1.3125" stroke-linecap="round" stroke-linejoin="round"/>
</g>
</g>
</svg>
