<svg width="21" height="21" viewBox="0 0 21 21" fill="none" xmlns="http://www.w3.org/2000/svg">
<g id="Icon Button" clip-path="url(#clip0_2180_260)">
<path id="Vector" d="M8.23725 18.3985C7.69825 18.7109 7.59588 18.7477 7.08925 18.927C6.96675 18.969 6.78125 19.0434 7.15925 19.2604L9.69675 20.7812C9.93913 20.9238 10.2191 20.9982 10.4948 20.9982L10.4965 20.9999C10.7756 20.9999 11.0513 20.9247 11.2936 20.7829L18.8904 16.3405C19.3839 16.0492 19.6884 15.511 19.6884 14.9362V6.05666C19.6884 5.47741 19.3848 4.93928 18.8904 4.65228L11.2936 0.205532C11.0494 0.0704005 10.7748 -0.000488281 10.4956 -0.000488281C10.2165 -0.000488281 9.94189 0.0704005 9.69763 0.205532L2.10963 4.64791C1.86635 4.79273 1.66493 4.99836 1.52518 5.24458C1.38542 5.49081 1.31213 5.76916 1.3125 6.05228V14.9318C1.3125 15.511 1.61613 16.0492 2.10963 16.3362L4.10025 17.499C5.06275 17.9829 5.4075 17.9829 5.84763 17.9829C7.27475 17.9829 8.09725 17.1079 8.09725 15.5828V6.81178C8.09714 6.78271 8.0913 6.75395 8.08007 6.72713C8.06883 6.70032 8.05243 6.67598 8.03179 6.6555C8.01116 6.63503 7.98669 6.61882 7.95978 6.6078C7.93288 6.59678 7.90407 6.59117 7.875 6.59128H6.9125C6.88333 6.59081 6.85437 6.59619 6.82731 6.60708C6.80024 6.61797 6.77564 6.63417 6.75493 6.65471C6.73422 6.67526 6.71783 6.69974 6.70672 6.72671C6.69561 6.75369 6.69001 6.78261 6.69025 6.81178V15.5784C6.69025 16.2574 5.999 16.9285 4.86763 16.358L2.78688 15.1409C2.7507 15.1204 2.72066 15.0907 2.69989 15.0546C2.67911 15.0186 2.66836 14.9777 2.66875 14.9362V6.05666C2.66875 5.97003 2.71425 5.88603 2.78775 5.84403L10.3758 1.40166C10.4114 1.38099 10.4518 1.3701 10.493 1.3701C10.5342 1.3701 10.5746 1.38099 10.6103 1.40166L18.2026 5.83966C18.239 5.86196 18.269 5.89322 18.2899 5.93045C18.3107 5.96767 18.3216 6.00962 18.3216 6.05228V14.9362C18.3216 15.0184 18.277 15.1024 18.207 15.1444L10.6103 19.5868C10.5746 19.6075 10.5342 19.6183 10.493 19.6183C10.4518 19.6183 10.4114 19.6075 10.3758 19.5868L8.42625 18.416C8.3685 18.3784 8.295 18.3653 8.23725 18.3985Z" fill="#072600"/>
<path id="Vector_2" d="M12.8399 13.5355C10.8291 13.5355 10.3881 13.0227 10.2411 12.0103C10.2335 11.9581 10.2073 11.9103 10.1673 11.8759C10.1272 11.8415 10.0761 11.8227 10.0233 11.8231H9.04064C9.01181 11.8231 8.98326 11.8288 8.95666 11.8399C8.93005 11.851 8.90591 11.8673 8.88565 11.8878C8.86538 11.9083 8.84939 11.9327 8.83859 11.9594C8.8278 11.9861 8.82242 12.0147 8.82277 12.0436C8.82277 13.3395 9.51752 14.8856 12.8443 14.8856C15.2453 14.8812 16.6286 13.9196 16.6286 12.244L16.626 12.2448C16.626 10.5823 15.5156 10.1405 13.1838 9.82808C10.823 9.51133 10.585 9.34858 10.585 8.79033C10.585 8.32833 10.7871 7.71145 12.5345 7.71145C14.0938 7.71145 14.6695 8.0527 14.9075 9.11933C14.9276 9.21995 15.0186 9.29433 15.1219 9.29433H16.1089C16.1701 9.29433 16.2279 9.26983 16.269 9.22345C16.31 9.17639 16.3307 9.11509 16.3268 9.05283C16.1745 7.21533 14.9696 6.36133 12.5345 6.36133C10.3671 6.36133 9.07564 7.28708 9.07564 8.8402C9.07564 10.5237 10.3628 10.991 12.44 11.1983C14.9285 11.4451 15.121 11.8152 15.121 12.3113C15.1228 13.1697 14.4403 13.5355 12.8399 13.5355Z" fill="#072600"/>
</g>
<defs>
<clipPath id="clip0_2180_260">
<rect width="21" height="21" fill="white"/>
</clipPath>
</defs>
</svg>
