<svg width="21" height="21" viewBox="0 0 21 21" fill="none" xmlns="http://www.w3.org/2000/svg">
<g id="logos:jwt-icon" clip-path="url(#clip0_2180_278)">
<path id="Vector" d="M12.0899 5.64393L12.0688 0H8.90967L8.93075 5.64393L10.5103 7.80505L12.0899 5.64393ZM8.93075 15.3163V20.9812H12.0899V15.3163L10.5103 13.1552L8.93075 15.3163Z" fill="#252E23"/>
<path id="Vector_2" d="M12.0901 15.3163L15.4178 19.8902L17.9663 18.0439L14.6385 13.47L12.0901 12.6517V15.3163ZM8.93093 5.64398L5.58211 1.07007L3.03369 2.91643L6.36143 7.49035L8.93093 8.30861V5.64398Z" fill="#252E23"/>
<path id="Vector_3" d="M6.36157 7.49023L0.969768 5.74878L0.000976562 8.72808L5.3927 10.4905L7.94112 9.65127L6.36157 7.49023ZM13.0591 11.3088L14.6387 13.4699L20.0305 15.2113L20.9993 12.232L15.6075 10.4905L13.0591 11.3088Z" fill="#252E23"/>
<path id="Vector_4" d="M15.6075 10.4905L20.9993 8.72808L20.0305 5.74878L14.6387 7.49023L13.0591 9.65127L15.6075 10.4905ZM5.3927 10.4905L0.000976562 12.232L0.969768 15.2113L6.36157 13.4699L7.94112 11.3088L5.3927 10.4905Z" fill="#252E23"/>
<path id="Vector_5" d="M6.36143 13.47L3.03369 18.0439L5.58211 19.8902L8.93093 15.3163V12.6517L6.36143 13.47ZM14.6385 7.49035L17.9663 2.91643L15.4178 1.07007L12.0901 5.64398V8.30861L14.6385 7.49035Z" fill="#252E23"/>
</g>
<defs>
<clipPath id="clip0_2180_278">
<rect width="21" height="21" fill="white"/>
</clipPath>
</defs>
</svg>
