<svg width="21" height="21" viewBox="0 0 21 21" fill="none" xmlns="http://www.w3.org/2000/svg">
<g id="Mongodb" clip-path="url(#clip0_2364_9815)">
<path id="Vector" d="M10.5002 0.699985L11.0168 0.226785C10.9512 0.155056 10.8714 0.0977707 10.7824 0.0585784C10.6935 0.0193862 10.5974 -0.000854492 10.5002 -0.000854492C10.403 -0.000854492 10.3068 0.0193862 10.2179 0.0585784C10.129 0.0977707 10.0492 0.155056 9.98357 0.226785L10.5002 0.699985ZM10.5002 18.9L9.94997 19.3326C10.0155 19.4159 10.099 19.4832 10.1943 19.5295C10.2896 19.5758 10.3942 19.5998 10.5002 19.5998C10.6061 19.5998 10.7107 19.5758 10.806 19.5295C10.9013 19.4832 10.9849 19.4159 11.0504 19.3326L10.5002 18.9ZM11.2002 21V0.699985H9.80017V21H11.2002ZM11.0504 18.4674L7.02257 13.342L5.92217 14.2072L9.94997 19.334L11.0504 18.4674ZM7.33197 5.19118L11.0182 1.17318L9.98357 0.226785L6.30017 4.24478L7.33197 5.19118ZM9.98357 1.17318L13.6684 5.19118L14.7002 4.24618L11.0168 0.228185L9.98357 1.17318ZM13.9778 13.3406L9.94997 18.4674L11.0504 19.3326L15.0782 14.2072L13.9778 13.3406ZM13.6684 5.19258C14.6771 6.29384 15.2619 7.71765 15.3183 9.21004C15.3747 10.7024 14.8991 12.1663 13.9764 13.3406L15.0782 14.2072C16.206 12.7717 16.7872 10.9808 16.7179 9.15658C16.6487 7.33234 15.9336 5.59204 14.7002 4.24618L13.6684 5.19258ZM7.02257 13.342C6.1 12.1676 5.62466 10.7022 5.68133 9.20978C5.738 7.71739 6.32299 6.29367 7.33197 5.19258L6.30017 4.24478C5.06676 5.59064 4.35163 7.33094 4.2824 9.15518C4.21316 10.9794 4.79432 12.7689 5.92217 14.2044L7.02257 13.342Z" fill="#1E1E1E"/>
</g>
<defs>
<clipPath id="clip0_2364_9815">
<rect width="21" height="21" fill="white"/>
</clipPath>
</defs>
</svg>
