<svg width="21" height="21" viewBox="0 0 21 21" fill="none" xmlns="http://www.w3.org/2000/svg">
<g id="teenyicons:netlify-solid">
<path id="Vector" d="M10.0045 0.204431C10.0696 0.139242 10.1468 0.0875221 10.2319 0.0522331C10.3169 0.016944 10.4081 -0.0012207 10.5001 -0.0012207C10.5922 -0.0012207 10.6834 0.016944 10.7684 0.0522331C10.8535 0.0875221 10.9307 0.139242 10.9957 0.204431L12.3677 1.57643L9.81974 5.69243L6.03134 4.17903L10.0045 0.204431ZM4.95474 5.25563L3.39654 6.81383L6.60814 10.8808L9.07074 6.90203L4.95474 5.25563ZM2.39974 7.81063L0.204541 10.0044C0.172749 10.0366 0.144149 10.0718 0.119141 10.1094L5.04994 11.1664L2.39974 7.81063ZM0.924141 11.7138L2.33394 13.1236L3.97894 12.3676L0.924141 11.7138ZM3.38814 14.1792L4.11614 14.9072L5.03174 13.426L3.38814 14.1792ZM5.13254 15.9236L10.0045 20.7956C10.0696 20.8608 10.1468 20.9125 10.2319 20.9478C10.3169 20.9831 10.4081 21.0013 10.5001 21.0013C10.5922 21.0013 10.6834 20.9831 10.7684 20.9478C10.8535 20.9125 10.9307 20.8608 10.9957 20.7956L11.4479 20.342L11.6145 19.481L6.74674 13.314L5.13254 15.9236ZM13.2133 18.5766L16.6965 15.0934L13.9945 14.5152L13.2133 18.5766ZM17.8753 13.9146L20.3687 11.4226L15.0025 9.27503L14.2591 13.139L17.8753 13.9146ZM20.8881 10.122C20.8616 10.0796 20.8307 10.0402 20.7957 10.0044L18.1861 7.39623L16.2709 8.27543L20.8881 10.122ZM17.1305 6.34203L15.8187 5.02883L15.4155 7.12743L17.1305 6.34203ZM14.6231 3.83323L13.3841 2.59423L11.1385 6.22023L13.9483 7.34583L14.6231 3.83323ZM8.39734 11.8832L13.5269 9.53403L12.8899 12.8478L8.39734 11.8832ZM8.55694 13.349L12.6253 14.2212L11.9631 17.6652L8.55694 13.349ZM8.66194 10.2228L12.7219 8.36223L10.3909 7.42983L8.66194 10.2228Z" fill="#072600"/>
</g>
</svg>
