<svg width="21" height="21" viewBox="0 0 21 21" fill="none" xmlns="http://www.w3.org/2000/svg">
<g id="ri:nodejs-fill">
<path id="Vector" d="M9.77725 19.7356C10.0013 19.8572 10.2419 19.9263 10.5 19.9263C10.7581 19.9263 11.0163 19.8563 11.2228 19.7706L18.0898 15.7701C18.5369 15.5102 18.8125 15.0255 18.8125 14.5057V6.52221C18.8125 6.00333 18.5369 5.51771 18.0898 5.25871L11.2228 1.25821C11.0004 1.13918 10.7522 1.0769 10.5 1.0769C10.2478 1.0769 9.99957 1.13918 9.77725 1.25821L2.91025 5.25871C2.68987 5.38778 2.50717 5.57237 2.38035 5.79406C2.25354 6.01575 2.18705 6.26681 2.1875 6.52221V14.5057C2.1875 15.0255 2.46313 15.5102 2.91025 15.7701L4.71713 16.8096C5.59475 17.2418 5.90538 17.2418 6.30088 17.2418C7.5915 17.2418 8.33088 16.4456 8.33088 15.0771V7.19771C8.33021 7.14322 8.30838 7.09112 8.27001 7.05242C8.23164 7.01373 8.17974 6.99146 8.12525 6.99033H7.24763C7.19299 6.99124 7.14086 7.0134 7.10231 7.05212C7.06375 7.09084 7.0418 7.14307 7.04113 7.19771V15.0771C7.04113 15.6835 6.40413 16.2898 5.38825 15.7701L3.51313 14.679C3.44313 14.644 3.40988 14.5582 3.40988 14.4882V6.50558C3.40988 6.43558 3.444 6.34896 3.51313 6.31483L10.3801 2.33183C10.4309 2.29683 10.5175 2.29683 10.5858 2.33183L17.4536 6.31483C17.5219 6.34983 17.5569 6.41896 17.5569 6.50558V14.4882C17.5569 14.5757 17.5219 14.644 17.4536 14.679L10.5858 18.6795C10.5341 18.7145 10.4484 18.7145 10.3793 18.6795L8.62488 17.6225C8.57325 17.5875 8.50413 17.57 8.4525 17.605C7.97125 17.8823 7.88463 17.9165 7.42 18.0722C7.31675 18.1072 7.14525 18.1763 7.48913 18.3671L9.77725 19.7356ZM9.00288 11.8737C9.00288 13.0515 9.62238 14.4366 12.6341 14.4366C14.8024 14.4366 16.0589 13.5703 16.0589 12.047C16.0589 10.5577 15.0605 10.1587 12.9439 9.88221C10.8089 9.60483 10.5858 9.44908 10.5858 8.94683C10.5858 8.53121 10.7756 7.97733 12.3585 7.97733C13.7699 7.97733 14.3028 8.28883 14.5101 9.24083C14.5199 9.28413 14.5438 9.32297 14.578 9.35129C14.6122 9.37962 14.6548 9.39585 14.6991 9.39746H15.6109C15.6634 9.39746 15.7141 9.36246 15.7491 9.32746C15.7825 9.28239 15.8006 9.22781 15.8008 9.17171C15.6634 7.50921 14.5793 6.74796 12.376 6.74796C10.4143 6.74796 9.2435 7.57921 9.2435 8.98183C9.2435 10.4877 10.4143 10.9033 12.2894 11.0941C14.5443 11.3198 14.7166 11.6488 14.7166 12.0986C14.7166 12.8773 14.0971 13.2072 12.6516 13.2072C10.8273 13.2072 10.4309 12.7566 10.2935 11.8387C10.2935 11.7355 10.2078 11.6655 10.1045 11.6655H9.20938C9.15459 11.6664 9.10233 11.6887 9.06375 11.7276C9.02517 11.7665 9.00333 11.8189 9.00288 11.8737Z" fill="#072600"/>
</g>
</svg>
