<svg width="21" height="21" viewBox="0 0 21 21" fill="none" xmlns="http://www.w3.org/2000/svg">
<g id="Frame">
<path id="Vector" d="M10.5002 8.62055C10.2502 8.61516 10.0015 8.65975 9.76895 8.75171C9.53635 8.84367 9.32446 8.98116 9.1457 9.1561C8.96695 9.33104 8.82492 9.53991 8.72796 9.77047C8.631 10.001 8.58105 10.2486 8.58105 10.4987C8.58105 10.7489 8.631 10.9965 8.72796 11.227C8.82492 11.4576 8.96695 11.6664 9.1457 11.8414C9.32446 12.0163 9.53635 12.1538 9.76895 12.2458C10.0015 12.3377 10.2502 12.3823 10.5002 12.3769C10.9913 12.3663 11.4587 12.1638 11.8023 11.8127C12.1459 11.4616 12.3383 10.99 12.3383 10.4987C12.3383 10.0075 12.1459 9.53584 11.8023 9.18476C11.4587 8.83369 10.9913 8.63116 10.5002 8.62055Z" fill="#072600"/>
<path id="Vector_2" d="M3.94975 13.8259C4.13438 13.8871 4.319 13.9492 4.508 14.0026C4.44675 14.2485 4.39338 14.4909 4.3435 14.7411C3.913 17.0179 4.249 18.8221 5.3235 19.4416C6.43125 20.0812 8.29325 19.425 10.1062 17.8377C10.2498 17.7109 10.3932 17.5796 10.5367 17.4396C10.717 17.6164 10.906 17.7844 11.0941 17.948C12.8494 19.4574 14.5845 20.0681 15.6555 19.4495C16.7633 18.8099 17.1237 16.87 16.6565 14.5075C16.6186 14.3221 16.5775 14.1375 16.5331 13.9536C16.6644 13.9169 16.7913 13.8757 16.919 13.8346C19.2859 13.0515 21 11.7836 21 10.4834C21 9.24086 19.3839 8.03511 17.1526 7.26773C16.9324 7.19444 16.711 7.12385 16.4885 7.05773C16.5252 6.90636 16.5585 6.75411 16.5909 6.60273C17.0958 4.15798 16.7633 2.19448 15.6433 1.54611C14.5644 0.926606 12.8048 1.57061 11.025 3.12111C10.8483 3.27248 10.6768 3.43261 10.5122 3.59273C10.4007 3.4854 10.2872 3.38009 10.1719 3.27686C8.3055 1.61961 6.43562 0.922231 5.31562 1.57498C4.24112 2.19886 3.92088 4.04861 4.37238 6.36036C4.41788 6.59048 4.46688 6.81536 4.52375 7.04548C4.26125 7.11898 4.00312 7.20123 3.76075 7.28786C1.57062 8.04648 0 9.24436 0 10.4834C0 11.7635 1.673 13.0462 3.94975 13.8259ZM9.52787 17.1675C8.85161 17.7874 8.0675 18.2782 7.21438 18.6156C6.75938 18.8326 6.23438 18.8536 5.76625 18.669C5.11438 18.2919 4.84312 16.8437 5.21237 14.8951C5.25787 14.6659 5.30688 14.4357 5.36375 14.21C6.2825 14.4069 7.20912 14.5425 8.14887 14.6116C8.69105 15.3795 9.28295 16.1112 9.92075 16.8017C9.7895 16.9286 9.65825 17.052 9.527 17.1666L9.52787 17.1675ZM14.7367 9.46573C14.5453 9.10379 14.3469 8.74556 14.1418 8.39123C13.9405 8.04298 13.7314 7.69823 13.5144 7.35786C14.175 7.44011 14.8068 7.55036 15.3974 7.68598C15.2084 8.29035 14.9879 8.88441 14.7367 9.46573ZM14.7446 11.508C15.0071 12.103 15.2372 12.7059 15.4376 13.3254C14.8015 13.4689 14.1584 13.58 13.51 13.6535C13.9523 12.9564 14.3642 12.2406 14.7446 11.508ZM14.2704 10.4877C13.72 11.6202 13.0926 12.7136 12.3926 13.7602C11.7819 13.8057 11.1458 13.8259 10.5017 13.8259C9.85775 13.8259 9.23475 13.8057 8.63188 13.7681C7.92 12.7292 7.28789 11.6379 6.741 10.5035H6.73925C7.28168 9.37056 7.90971 8.28065 8.61788 7.24323C9.87149 7.15043 11.1303 7.15043 12.3839 7.24323C12.7321 7.76036 13.0646 8.28886 13.3805 8.83048C13.6955 9.37283 13.9923 9.92556 14.2704 10.4877ZM6.853 8.39911C6.65175 8.74736 6.45487 9.10348 6.27025 9.46486C6.02254 8.88002 5.80353 8.28343 5.614 7.67723C6.20463 7.54598 6.832 7.43923 7.48388 7.35698C7.26775 7.69736 7.05425 8.04561 6.853 8.39911ZM6.27112 11.5404C6.46012 11.9017 6.65263 12.2587 6.85738 12.6114C7.0665 12.9684 7.28 13.3254 7.50575 13.6736C6.86647 13.6039 6.23124 13.5011 5.60262 13.3656C5.78288 12.775 6.00863 12.1642 6.27112 11.5404ZM10.5332 16.17C10.0942 15.6952 9.67951 15.1984 9.29075 14.6816C10.1094 14.7151 10.9292 14.7136 11.7477 14.6772C11.3707 15.1968 10.9652 15.6951 10.5332 16.17ZM15.8944 17.402C15.8752 17.6507 15.8051 17.8929 15.6886 18.1135C15.5722 18.3342 15.4117 18.5286 15.2171 18.6847C14.5653 19.0619 13.1749 18.5701 11.6734 17.2821C11.4967 17.1284 11.3231 16.9711 11.1528 16.8105C11.7795 16.1185 12.3578 15.3841 12.8835 14.6125C13.8249 14.5344 14.7596 14.3906 15.6809 14.182C15.722 14.35 15.7587 14.518 15.792 14.6825C15.9923 15.5751 16.027 16.4969 15.8944 17.402ZM16.2505 7.90298C16.464 7.96423 16.6687 8.02986 16.8656 8.09548C18.7766 8.75173 20.118 9.72823 20.118 10.4746C20.118 11.2787 18.6865 12.3165 16.6399 12.9929C16.5252 13.0296 16.4106 13.0664 16.2916 13.0996C16.0025 12.2047 15.6531 11.3303 15.246 10.4825C15.6397 9.64598 15.9722 8.78411 16.2505 7.90298ZM11.6025 3.78523C13.1294 2.45698 14.5521 1.93636 15.2005 2.30911C15.8935 2.70723 16.1604 4.31461 15.7255 6.42686C15.6981 6.56457 15.6666 6.70142 15.631 6.83723C14.7214 6.63139 13.7992 6.48611 12.8704 6.40236C12.3379 5.6374 11.7541 4.90948 11.123 4.22361C11.2831 4.07223 11.4389 3.92873 11.6025 3.78523ZM10.5087 4.85186C10.9392 5.31911 11.3453 5.81086 11.7224 6.31923C10.9093 6.28248 10.095 6.28248 9.282 6.31923C9.68363 5.79073 10.0984 5.29898 10.5087 4.85186ZM5.7505 2.33798C6.44 1.93636 7.9695 2.51036 9.58125 3.93748C9.68363 4.02761 9.786 4.12648 9.89275 4.22448C9.25773 4.90959 8.66984 5.63692 8.13313 6.40148C7.20615 6.48437 6.28548 6.627 5.37687 6.82848C5.3235 6.61936 5.27887 6.40586 5.23338 6.19236C4.8475 4.20698 5.10213 2.71073 5.7505 2.33798ZM4.04862 8.11998C4.28225 8.03773 4.52025 7.96423 4.75825 7.89423C5.0371 8.78423 5.37262 9.65546 5.76275 10.5026C5.369 11.3601 5.02863 12.2456 4.746 13.1477L4.74512 13.1486C4.57425 13.0998 4.40473 13.0465 4.23675 12.9885C3.3635 12.7137 2.37038 12.2789 1.65288 11.7092C1.44806 11.5676 1.27413 11.3858 1.14162 11.1749C1.00911 10.9641 0.920791 10.7285 0.882 10.4825C0.882 9.73173 2.17787 8.77186 4.04862 8.11998Z" fill="#072600"/>
</g>
</svg>
