<svg width="21" height="21" viewBox="0 0 21 21" fill="none" xmlns="http://www.w3.org/2000/svg">
<g id="devicon:tailwindcss">
<path id="Vector" d="M11.5259 14.2407L11.5256 14.2404C10.9606 13.6597 10.3967 13.0838 9.64038 12.643C8.89522 12.2087 7.94348 11.896 6.6052 11.896C5.15957 11.896 4.03257 12.2603 3.18163 12.9492C2.7525 13.2966 2.3811 13.7367 2.07152 14.2762C2.22728 14.1817 2.38677 14.0988 2.55007 14.028C3.32247 13.6929 4.14648 13.6416 5.00291 13.8583C5.00301 13.8583 5.00311 13.8583 5.00321 13.8584L11.5259 14.2407ZM11.5259 14.2407C11.5412 14.2564 11.5565 14.2721 11.5718 14.2878C12.2281 14.9617 12.933 15.6854 13.9343 15.9381C14.7908 16.1548 15.6149 16.1036 16.3874 15.7687C16.5509 15.6978 16.7105 15.6149 16.8664 15.5203M11.5259 14.2407L16.8664 15.5203M16.8664 15.5203C16.5568 16.0598 16.1853 16.5 15.7561 16.8474C14.9051 17.5362 13.7781 17.9005 12.3325 17.9005C10.9947 17.9005 10.0431 17.5877 9.2978 17.1534C8.54133 16.7126 7.97722 16.1366 7.41175 15.5559L16.8664 15.5203ZM18.9344 7.59971C18.6248 8.13922 18.2534 8.57935 17.8242 8.9268C16.9733 9.61573 15.8463 9.98001 14.4007 9.98001C13.0629 9.98001 12.1112 9.66725 11.366 9.23296C10.6095 8.79215 10.0455 8.21622 9.48001 7.63553C9.46603 7.62116 9.45202 7.60676 9.43799 7.59234C8.78104 6.91701 8.07489 6.1911 7.07136 5.93787C6.21498 5.72119 5.39087 5.77244 4.61837 6.10736C4.45494 6.17822 4.29533 6.2611 4.13945 6.35562C4.44905 5.81612 4.8205 5.37598 5.24972 5.02854C6.10063 4.33974 7.22765 3.97549 8.67338 3.97549C10.0117 3.97549 10.9634 4.28827 11.7086 4.72253C12.4649 5.16333 13.0287 5.73926 13.5938 6.31994L13.5941 6.32019C13.6092 6.33572 13.6244 6.35129 13.6396 6.36688C14.2961 7.041 15.0011 7.7648 16.0027 8.01769C16.8592 8.2344 17.6832 8.1831 18.4557 7.84801C18.619 7.77714 18.7786 7.69424 18.9344 7.59971Z" stroke="#072600" stroke-width="0.95"/>
</g>
</svg>
