<svg width="21" height="21" viewBox="0 0 21 21" fill="none" xmlns="http://www.w3.org/2000/svg">
<g id="nonicons:vscode-16">
<path id="Vector" fill-rule="evenodd" clip-rule="evenodd" d="M15.1895 0.360926C15.1029 0.384214 15.0189 0.416319 14.9388 0.456738C14.8876 0.484301 13.1236 1.99499 11.0197 3.81411C8.91575 5.63324 7.16882 7.11899 7.13994 7.11899C7.11106 7.11899 6.26844 6.50474 5.267 5.75399C4.26688 5.00455 3.39275 4.36668 3.3245 4.33911C3.12763 4.25643 2.71025 4.27349 2.51994 4.37061C2.30206 4.48349 0.248002 6.52968 0.123315 6.75936C0.0393687 6.91574 -0.000121406 7.09214 0.00913427 7.26938C0.0183899 7.44663 0.0760375 7.61795 0.175815 7.76474C0.229627 7.83955 0.930502 8.4958 1.73113 9.22161C2.53175 9.94743 3.18406 10.5538 3.1775 10.5682C3.17094 10.5827 2.52782 11.1484 1.74557 11.8243C0.963315 12.5002 0.27294 13.1119 0.212565 13.1841C0.0984608 13.333 0.0293125 13.5115 0.0132674 13.6985C-0.00277766 13.8854 0.0349491 14.0731 0.122002 14.2393C0.248002 14.469 2.29944 16.5152 2.51994 16.6294C2.73781 16.7435 3.17225 16.7462 3.377 16.6359C3.45444 16.5952 4.29575 15.977 5.246 15.2631L6.97588 13.9663L7.11894 14.0976L10.7021 17.3434C13.1249 19.5366 14.2012 20.4881 14.3403 20.5629L14.5372 20.6679H16.3064L18.4471 19.5996C20.4159 18.6178 20.5996 18.5194 20.7414 18.3632C21.0209 18.0521 20.9999 18.6795 20.9999 10.8321C20.9999 3.19199 21.0118 3.6553 20.8018 3.35211C20.7256 3.24186 20.2636 2.91768 18.6571 1.84536C17.5323 1.09461 16.5401 0.447551 16.4521 0.408176C16.3209 0.349113 16.2067 0.334676 15.8195 0.325488C15.5084 0.318926 15.2932 0.330738 15.1895 0.360926ZM17.4194 3.38624L19.0378 4.46249L19.0391 10.7887L19.0404 17.115L17.4588 17.9025L15.8786 18.69H15.1318L11.3662 15.2827C9.29507 13.4085 7.54419 11.8492 7.47725 11.8164C7.21606 11.6931 6.821 11.6839 6.60969 11.7981C6.56506 11.8217 5.75525 12.4215 4.80894 13.1302C3.86263 13.8403 3.07381 14.4204 3.05675 14.4204C3.01738 14.4204 2.43069 13.8324 2.45169 13.814C3.335 13.0567 5.17907 11.4594 5.31557 11.3321C5.42844 11.2258 5.53738 11.0801 5.59119 10.9646C5.666 10.7979 5.6765 10.7362 5.66207 10.5144C5.64894 10.3071 5.62532 10.2217 5.54263 10.0892C5.47306 9.9763 4.94675 9.47755 3.92956 8.55749L2.42019 7.19249L2.72338 6.88668C2.82627 6.77476 2.9387 6.672 3.05938 6.57955C3.07644 6.57955 3.90463 7.18986 4.89688 7.93536C6.86038 9.4093 6.91419 9.44211 7.2725 9.40011C7.38669 9.38463 7.49833 9.35418 7.60457 9.30955C7.68594 9.27149 8.26475 8.79768 8.8895 8.25693L10.4474 6.9103L13.3179 4.42968C14.1354 3.71826 14.9575 3.01212 15.7841 2.3113C15.7946 2.30999 16.5296 2.7943 17.4194 3.38624ZM15.2774 5.5873C15.2065 5.60666 15.1365 5.629 15.0674 5.65424C14.99 5.6818 13.6513 6.62286 12.092 7.74505C9.01288 9.96186 9.08244 9.90543 8.99188 10.3084C8.95798 10.4339 8.95798 10.5661 8.99188 10.6916C9.08113 11.0946 9.01419 11.0381 12.092 13.2549C13.6513 14.3771 14.9979 15.3234 15.0845 15.3562C15.5399 15.5308 16.0597 15.3182 16.3038 14.8575L16.397 14.6829V6.31705L16.3038 6.14249C16.2014 5.93534 16.0302 5.77018 15.8195 5.67524C15.6528 5.60174 15.3943 5.55974 15.2774 5.5873ZM14.4112 11.4936L14.402 12.4871L13.0291 11.5027C12.5663 11.1757 12.1086 10.8414 11.6563 10.5C11.6563 10.4908 12.2744 10.0393 13.0291 9.49724L14.402 8.51286L14.4112 9.50643C14.4164 10.1688 14.4164 10.8312 14.4112 11.4936Z" fill="#252E23"/>
</g>
</svg>
