<svg width="273" height="2" viewBox="0 0 273 2" fill="none" xmlns="http://www.w3.org/2000/svg">
<rect y="0.135956" width="0.2" height="2" transform="rotate(-25 0 0.135956)" fill="#170629"/>
<rect x="1.42627" y="0.135956" width="0.2" height="2" transform="rotate(-25 1.42627 0.135956)" fill="#170629"/>
<rect x="2.85303" y="0.135956" width="0.2" height="2" transform="rotate(-25 2.85303 0.135956)" fill="#170629"/>
<rect x="4.2793" y="0.135956" width="0.2" height="2" transform="rotate(-25 4.2793 0.135956)" fill="#170629"/>
<rect x="5.70605" y="0.135956" width="0.2" height="2" transform="rotate(-25 5.70605 0.135956)" fill="#170629"/>
<rect x="7.13232" y="0.135956" width="0.2" height="2" transform="rotate(-25 7.13232 0.135956)" fill="#170629"/>
<rect x="8.55908" y="0.135956" width="0.2" height="2" transform="rotate(-25 8.55908 0.135956)" fill="#170629"/>
<rect x="9.98535" y="0.135956" width="0.2" height="2" transform="rotate(-25 9.98535 0.135956)" fill="#170629"/>
<rect x="11.4121" y="0.135956" width="0.2" height="2" transform="rotate(-25 11.4121 0.135956)" fill="#170629"/>
<rect x="12.8384" y="0.135956" width="0.2" height="2" transform="rotate(-25 12.8384 0.135956)" fill="#170629"/>
<rect x="14.2651" y="0.135956" width="0.2" height="2" transform="rotate(-25 14.2651 0.135956)" fill="#170629"/>
<rect x="15.6914" y="0.135956" width="0.2" height="2" transform="rotate(-25 15.6914 0.135956)" fill="#170629"/>
<rect x="17.1182" y="0.135956" width="0.2" height="2" transform="rotate(-25 17.1182 0.135956)" fill="#170629"/>
<rect x="18.5444" y="0.135956" width="0.2" height="2" transform="rotate(-25 18.5444 0.135956)" fill="#170629"/>
<rect x="19.9712" y="0.135956" width="0.2" height="2" transform="rotate(-25 19.9712 0.135956)" fill="#170629"/>
<rect x="21.3975" y="0.135956" width="0.2" height="2" transform="rotate(-25 21.3975 0.135956)" fill="#170629"/>
<rect x="22.8237" y="0.135956" width="0.2" height="2" transform="rotate(-25 22.8237 0.135956)" fill="#170629"/>
<rect x="24.2505" y="0.135956" width="0.2" height="2" transform="rotate(-25 24.2505 0.135956)" fill="#170629"/>
<rect x="25.6768" y="0.135956" width="0.2" height="2" transform="rotate(-25 25.6768 0.135956)" fill="#170629"/>
<rect x="27.1035" y="0.135956" width="0.2" height="2" transform="rotate(-25 27.1035 0.135956)" fill="#170629"/>
<rect x="28.5298" y="0.135956" width="0.2" height="2" transform="rotate(-25 28.5298 0.135956)" fill="#170629"/>
<rect x="29.9565" y="0.135956" width="0.2" height="2" transform="rotate(-25 29.9565 0.135956)" fill="#170629"/>
<rect x="31.3828" y="0.135956" width="0.2" height="2" transform="rotate(-25 31.3828 0.135956)" fill="#170629"/>
<rect x="32.8096" y="0.135956" width="0.2" height="2" transform="rotate(-25 32.8096 0.135956)" fill="#170629"/>
<rect x="34.2358" y="0.135956" width="0.2" height="2" transform="rotate(-25 34.2358 0.135956)" fill="#170629"/>
<rect x="35.6626" y="0.135956" width="0.2" height="2" transform="rotate(-25 35.6626 0.135956)" fill="#170629"/>
<rect x="37.0889" y="0.135956" width="0.2" height="2" transform="rotate(-25 37.0889 0.135956)" fill="#170629"/>
<rect x="38.5156" y="0.135956" width="0.2" height="2" transform="rotate(-25 38.5156 0.135956)" fill="#170629"/>
<rect x="39.9419" y="0.135956" width="0.2" height="2" transform="rotate(-25 39.9419 0.135956)" fill="#170629"/>
<rect x="41.3687" y="0.135956" width="0.2" height="2" transform="rotate(-25 41.3687 0.135956)" fill="#170629"/>
<rect x="42.7949" y="0.135956" width="0.2" height="2" transform="rotate(-25 42.7949 0.135956)" fill="#170629"/>
<rect x="44.2217" y="0.135956" width="0.2" height="2" transform="rotate(-25 44.2217 0.135956)" fill="#170629"/>
<rect x="45.6479" y="0.135956" width="0.2" height="2" transform="rotate(-25 45.6479 0.135956)" fill="#170629"/>
<rect x="47.0742" y="0.135956" width="0.2" height="2" transform="rotate(-25 47.0742 0.135956)" fill="#170629"/>
<rect x="48.501" y="0.135956" width="0.2" height="2" transform="rotate(-25 48.501 0.135956)" fill="#170629"/>
<rect x="49.9272" y="0.135956" width="0.2" height="2" transform="rotate(-25 49.9272 0.135956)" fill="#170629"/>
<rect x="51.354" y="0.135956" width="0.2" height="2" transform="rotate(-25 51.354 0.135956)" fill="#170629"/>
<rect x="52.7803" y="0.135956" width="0.2" height="2" transform="rotate(-25 52.7803 0.135956)" fill="#170629"/>
<rect x="54.207" y="0.135956" width="0.2" height="2" transform="rotate(-25 54.207 0.135956)" fill="#170629"/>
<rect x="55.6333" y="0.135956" width="0.2" height="2" transform="rotate(-25 55.6333 0.135956)" fill="#170629"/>
<rect x="57.0601" y="0.135956" width="0.2" height="2" transform="rotate(-25 57.0601 0.135956)" fill="#170629"/>
<rect x="58.4863" y="0.135956" width="0.2" height="2" transform="rotate(-25 58.4863 0.135956)" fill="#170629"/>
<rect x="59.9131" y="0.135956" width="0.2" height="2" transform="rotate(-25 59.9131 0.135956)" fill="#170629"/>
<rect x="61.3394" y="0.135956" width="0.2" height="2" transform="rotate(-25 61.3394 0.135956)" fill="#170629"/>
<rect x="62.7661" y="0.135956" width="0.2" height="2" transform="rotate(-25 62.7661 0.135956)" fill="#170629"/>
<rect x="64.1924" y="0.135956" width="0.2" height="2" transform="rotate(-25 64.1924 0.135956)" fill="#170629"/>
<rect x="65.6191" y="0.135956" width="0.2" height="2" transform="rotate(-25 65.6191 0.135956)" fill="#170629"/>
<rect x="67.0454" y="0.135956" width="0.2" height="2" transform="rotate(-25 67.0454 0.135956)" fill="#170629"/>
<rect x="68.4717" y="0.135956" width="0.2" height="2" transform="rotate(-25 68.4717 0.135956)" fill="#170629"/>
<rect x="69.8984" y="0.135956" width="0.2" height="2" transform="rotate(-25 69.8984 0.135956)" fill="#170629"/>
<rect x="71.3247" y="0.135956" width="0.2" height="2" transform="rotate(-25 71.3247 0.135956)" fill="#170629"/>
<rect x="72.7515" y="0.135956" width="0.2" height="2" transform="rotate(-25 72.7515 0.135956)" fill="#170629"/>
<rect x="74.1777" y="0.135956" width="0.2" height="2" transform="rotate(-25 74.1777 0.135956)" fill="#170629"/>
<rect x="75.6045" y="0.135956" width="0.2" height="2" transform="rotate(-25 75.6045 0.135956)" fill="#170629"/>
<rect x="77.0308" y="0.135956" width="0.2" height="2" transform="rotate(-25 77.0308 0.135956)" fill="#170629"/>
<rect x="78.4575" y="0.135956" width="0.2" height="2" transform="rotate(-25 78.4575 0.135956)" fill="#170629"/>
<rect x="79.8838" y="0.135956" width="0.2" height="2" transform="rotate(-25 79.8838 0.135956)" fill="#170629"/>
<rect x="81.3105" y="0.135956" width="0.2" height="2" transform="rotate(-25 81.3105 0.135956)" fill="#170629"/>
<rect x="82.7368" y="0.135956" width="0.2" height="2" transform="rotate(-25 82.7368 0.135956)" fill="#170629"/>
<rect x="84.1636" y="0.135956" width="0.2" height="2" transform="rotate(-25 84.1636 0.135956)" fill="#170629"/>
<rect x="85.5898" y="0.135956" width="0.2" height="2" transform="rotate(-25 85.5898 0.135956)" fill="#170629"/>
<rect x="87.0166" y="0.135956" width="0.2" height="2" transform="rotate(-25 87.0166 0.135956)" fill="#170629"/>
<rect x="88.4429" y="0.135956" width="0.2" height="2" transform="rotate(-25 88.4429 0.135956)" fill="#170629"/>
<rect x="89.8696" y="0.135956" width="0.2" height="2" transform="rotate(-25 89.8696 0.135956)" fill="#170629"/>
<rect x="91.2959" y="0.135956" width="0.2" height="2" transform="rotate(-25 91.2959 0.135956)" fill="#170629"/>
<rect x="92.7222" y="0.135956" width="0.2" height="2" transform="rotate(-25 92.7222 0.135956)" fill="#170629"/>
<rect x="94.1489" y="0.135956" width="0.2" height="2" transform="rotate(-25 94.1489 0.135956)" fill="#170629"/>
<rect x="95.5752" y="0.135956" width="0.2" height="2" transform="rotate(-25 95.5752 0.135956)" fill="#170629"/>
<rect x="97.002" y="0.135956" width="0.2" height="2" transform="rotate(-25 97.002 0.135956)" fill="#170629"/>
<rect x="98.4282" y="0.135956" width="0.2" height="2" transform="rotate(-25 98.4282 0.135956)" fill="#170629"/>
<rect x="99.855" y="0.135956" width="0.2" height="2" transform="rotate(-25 99.855 0.135956)" fill="#170629"/>
<rect x="101.281" y="0.135956" width="0.2" height="2" transform="rotate(-25 101.281 0.135956)" fill="#170629"/>
<rect x="102.708" y="0.135956" width="0.2" height="2" transform="rotate(-25 102.708 0.135956)" fill="#170629"/>
<rect x="104.134" y="0.135956" width="0.2" height="2" transform="rotate(-25 104.134 0.135956)" fill="#170629"/>
<rect x="105.561" y="0.135956" width="0.2" height="2" transform="rotate(-25 105.561 0.135956)" fill="#170629"/>
<rect x="106.987" y="0.135956" width="0.2" height="2" transform="rotate(-25 106.987 0.135956)" fill="#170629"/>
<rect x="108.414" y="0.135956" width="0.2" height="2" transform="rotate(-25 108.414 0.135956)" fill="#170629"/>
<rect x="109.84" y="0.135956" width="0.2" height="2" transform="rotate(-25 109.84 0.135956)" fill="#170629"/>
<rect x="111.267" y="0.135956" width="0.2" height="2" transform="rotate(-25 111.267 0.135956)" fill="#170629"/>
<rect x="112.693" y="0.135956" width="0.2" height="2" transform="rotate(-25 112.693 0.135956)" fill="#170629"/>
<rect x="114.12" y="0.135956" width="0.2" height="2" transform="rotate(-25 114.12 0.135956)" fill="#170629"/>
<rect x="115.546" y="0.135956" width="0.2" height="2" transform="rotate(-25 115.546 0.135956)" fill="#170629"/>
<rect x="116.973" y="0.135956" width="0.2" height="2" transform="rotate(-25 116.973 0.135956)" fill="#170629"/>
<rect x="118.399" y="0.135956" width="0.2" height="2" transform="rotate(-25 118.399 0.135956)" fill="#170629"/>
<rect x="119.826" y="0.135956" width="0.2" height="2" transform="rotate(-25 119.826 0.135956)" fill="#170629"/>
<rect x="121.252" y="0.135956" width="0.2" height="2" transform="rotate(-25 121.252 0.135956)" fill="#170629"/>
<rect x="122.679" y="0.135956" width="0.2" height="2" transform="rotate(-25 122.679 0.135956)" fill="#170629"/>
<rect x="124.105" y="0.135956" width="0.2" height="2" transform="rotate(-25 124.105 0.135956)" fill="#170629"/>
<rect x="125.532" y="0.135956" width="0.2" height="2" transform="rotate(-25 125.532 0.135956)" fill="#170629"/>
<rect x="126.958" y="0.135956" width="0.2" height="2" transform="rotate(-25 126.958 0.135956)" fill="#170629"/>
<rect x="128.385" y="0.135956" width="0.2" height="2" transform="rotate(-25 128.385 0.135956)" fill="#170629"/>
<rect x="129.812" y="0.135956" width="0.2" height="2" transform="rotate(-25 129.812 0.135956)" fill="#170629"/>
<rect x="131.238" y="0.135956" width="0.2" height="2" transform="rotate(-25 131.238 0.135956)" fill="#170629"/>
<rect x="132.665" y="0.135956" width="0.2" height="2" transform="rotate(-25 132.665 0.135956)" fill="#170629"/>
<rect x="134.091" y="0.135956" width="0.2" height="2" transform="rotate(-25 134.091 0.135956)" fill="#170629"/>
<rect x="135.518" y="0.135956" width="0.2" height="2" transform="rotate(-25 135.518 0.135956)" fill="#170629"/>
<rect x="136.944" y="0.135956" width="0.2" height="2" transform="rotate(-25 136.944 0.135956)" fill="#170629"/>
<rect x="138.37" y="0.135956" width="0.2" height="2" transform="rotate(-25 138.37 0.135956)" fill="#170629"/>
<rect x="139.797" y="0.135956" width="0.2" height="2" transform="rotate(-25 139.797 0.135956)" fill="#170629"/>
<rect x="141.223" y="0.135956" width="0.2" height="2" transform="rotate(-25 141.223 0.135956)" fill="#170629"/>
<rect x="142.65" y="0.135956" width="0.2" height="2" transform="rotate(-25 142.65 0.135956)" fill="#170629"/>
<rect x="144.076" y="0.135956" width="0.2" height="2" transform="rotate(-25 144.076 0.135956)" fill="#170629"/>
<rect x="145.503" y="0.135956" width="0.2" height="2" transform="rotate(-25 145.503 0.135956)" fill="#170629"/>
<rect x="146.929" y="0.135956" width="0.2" height="2" transform="rotate(-25 146.929 0.135956)" fill="#170629"/>
<rect x="148.356" y="0.135956" width="0.2" height="2" transform="rotate(-25 148.356 0.135956)" fill="#170629"/>
<rect x="149.782" y="0.135956" width="0.2" height="2" transform="rotate(-25 149.782 0.135956)" fill="#170629"/>
<rect x="151.209" y="0.135956" width="0.2" height="2" transform="rotate(-25 151.209 0.135956)" fill="#170629"/>
<rect x="152.635" y="0.135956" width="0.2" height="2" transform="rotate(-25 152.635 0.135956)" fill="#170629"/>
<rect x="154.062" y="0.135956" width="0.2" height="2" transform="rotate(-25 154.062 0.135956)" fill="#170629"/>
<rect x="155.488" y="0.135956" width="0.2" height="2" transform="rotate(-25 155.488 0.135956)" fill="#170629"/>
<rect x="156.915" y="0.135956" width="0.2" height="2" transform="rotate(-25 156.915 0.135956)" fill="#170629"/>
<rect x="158.341" y="0.135956" width="0.2" height="2" transform="rotate(-25 158.341 0.135956)" fill="#170629"/>
<rect x="159.768" y="0.135956" width="0.2" height="2" transform="rotate(-25 159.768 0.135956)" fill="#170629"/>
<rect x="161.194" y="0.135956" width="0.2" height="2" transform="rotate(-25 161.194 0.135956)" fill="#170629"/>
<rect x="162.621" y="0.135956" width="0.2" height="2" transform="rotate(-25 162.621 0.135956)" fill="#170629"/>
<rect x="164.047" y="0.135956" width="0.2" height="2" transform="rotate(-25 164.047 0.135956)" fill="#170629"/>
<rect x="165.474" y="0.135956" width="0.2" height="2" transform="rotate(-25 165.474 0.135956)" fill="#170629"/>
<rect x="166.9" y="0.135956" width="0.2" height="2" transform="rotate(-25 166.9 0.135956)" fill="#170629"/>
<rect x="168.327" y="0.135956" width="0.2" height="2" transform="rotate(-25 168.327 0.135956)" fill="#170629"/>
<rect x="169.753" y="0.135956" width="0.2" height="2" transform="rotate(-25 169.753 0.135956)" fill="#170629"/>
<rect x="171.18" y="0.135956" width="0.2" height="2" transform="rotate(-25 171.18 0.135956)" fill="#170629"/>
<rect x="172.606" y="0.135956" width="0.2" height="2" transform="rotate(-25 172.606 0.135956)" fill="#170629"/>
<rect x="174.033" y="0.135956" width="0.2" height="2" transform="rotate(-25 174.033 0.135956)" fill="#170629"/>
<rect x="175.459" y="0.135956" width="0.2" height="2" transform="rotate(-25 175.459 0.135956)" fill="#170629"/>
<rect x="176.886" y="0.135956" width="0.2" height="2" transform="rotate(-25 176.886 0.135956)" fill="#170629"/>
<rect x="178.312" y="0.135956" width="0.2" height="2" transform="rotate(-25 178.312 0.135956)" fill="#170629"/>
<rect x="179.739" y="0.135956" width="0.2" height="2" transform="rotate(-25 179.739 0.135956)" fill="#170629"/>
<rect x="181.165" y="0.135956" width="0.2" height="2" transform="rotate(-25 181.165 0.135956)" fill="#170629"/>
<rect x="182.592" y="0.135956" width="0.2" height="2" transform="rotate(-25 182.592 0.135956)" fill="#170629"/>
<rect x="184.018" y="0.135956" width="0.2" height="2" transform="rotate(-25 184.018 0.135956)" fill="#170629"/>
<rect x="185.445" y="0.135956" width="0.2" height="2" transform="rotate(-25 185.445 0.135956)" fill="#170629"/>
<rect x="186.871" y="0.135956" width="0.2" height="2" transform="rotate(-25 186.871 0.135956)" fill="#170629"/>
<rect x="188.298" y="0.135956" width="0.2" height="2" transform="rotate(-25 188.298 0.135956)" fill="#170629"/>
<rect x="189.724" y="0.135956" width="0.2" height="2" transform="rotate(-25 189.724 0.135956)" fill="#170629"/>
<rect x="191.151" y="0.135956" width="0.2" height="2" transform="rotate(-25 191.151 0.135956)" fill="#170629"/>
<rect x="192.577" y="0.135956" width="0.2" height="2" transform="rotate(-25 192.577 0.135956)" fill="#170629"/>
<rect x="194.004" y="0.135956" width="0.2" height="2" transform="rotate(-25 194.004 0.135956)" fill="#170629"/>
<rect x="195.43" y="0.135956" width="0.2" height="2" transform="rotate(-25 195.43 0.135956)" fill="#170629"/>
<rect x="196.857" y="0.135956" width="0.2" height="2" transform="rotate(-25 196.857 0.135956)" fill="#170629"/>
<rect x="198.283" y="0.135956" width="0.2" height="2" transform="rotate(-25 198.283 0.135956)" fill="#170629"/>
<rect x="199.71" y="0.135956" width="0.2" height="2" transform="rotate(-25 199.71 0.135956)" fill="#170629"/>
<rect x="201.136" y="0.135956" width="0.2" height="2" transform="rotate(-25 201.136 0.135956)" fill="#170629"/>
<rect x="202.563" y="0.135956" width="0.2" height="2" transform="rotate(-25 202.563 0.135956)" fill="#170629"/>
<rect x="203.989" y="0.135956" width="0.2" height="2" transform="rotate(-25 203.989 0.135956)" fill="#170629"/>
<rect x="205.416" y="0.135956" width="0.2" height="2" transform="rotate(-25 205.416 0.135956)" fill="#170629"/>
<rect x="206.842" y="0.135956" width="0.2" height="2" transform="rotate(-25 206.842 0.135956)" fill="#170629"/>
<rect x="208.269" y="0.135956" width="0.2" height="2" transform="rotate(-25 208.269 0.135956)" fill="#170629"/>
<rect x="209.695" y="0.135956" width="0.2" height="2" transform="rotate(-25 209.695 0.135956)" fill="#170629"/>
<rect x="211.122" y="0.135956" width="0.2" height="2" transform="rotate(-25 211.122 0.135956)" fill="#170629"/>
<rect x="212.548" y="0.135956" width="0.2" height="2" transform="rotate(-25 212.548 0.135956)" fill="#170629"/>
<rect x="213.975" y="0.135956" width="0.2" height="2" transform="rotate(-25 213.975 0.135956)" fill="#170629"/>
<rect x="215.401" y="0.135956" width="0.2" height="2" transform="rotate(-25 215.401 0.135956)" fill="#170629"/>
<rect x="216.828" y="0.135956" width="0.2" height="2" transform="rotate(-25 216.828 0.135956)" fill="#170629"/>
<rect x="218.254" y="0.135956" width="0.2" height="2" transform="rotate(-25 218.254 0.135956)" fill="#170629"/>
<rect x="219.681" y="0.135956" width="0.2" height="2" transform="rotate(-25 219.681 0.135956)" fill="#170629"/>
<rect x="221.107" y="0.135956" width="0.2" height="2" transform="rotate(-25 221.107 0.135956)" fill="#170629"/>
<rect x="222.534" y="0.135956" width="0.2" height="2" transform="rotate(-25 222.534 0.135956)" fill="#170629"/>
<rect x="223.96" y="0.135956" width="0.2" height="2" transform="rotate(-25 223.96 0.135956)" fill="#170629"/>
<rect x="225.387" y="0.135956" width="0.2" height="2" transform="rotate(-25 225.387 0.135956)" fill="#170629"/>
<rect x="226.813" y="0.135956" width="0.2" height="2" transform="rotate(-25 226.813 0.135956)" fill="#170629"/>
<rect x="228.24" y="0.135956" width="0.2" height="2" transform="rotate(-25 228.24 0.135956)" fill="#170629"/>
<rect x="229.666" y="0.135956" width="0.2" height="2" transform="rotate(-25 229.666 0.135956)" fill="#170629"/>
<rect x="231.093" y="0.135956" width="0.2" height="2" transform="rotate(-25 231.093 0.135956)" fill="#170629"/>
<rect x="232.519" y="0.135956" width="0.2" height="2" transform="rotate(-25 232.519 0.135956)" fill="#170629"/>
<rect x="233.946" y="0.135956" width="0.2" height="2" transform="rotate(-25 233.946 0.135956)" fill="#170629"/>
<rect x="235.372" y="0.135956" width="0.2" height="2" transform="rotate(-25 235.372 0.135956)" fill="#170629"/>
<rect x="236.799" y="0.135956" width="0.2" height="2" transform="rotate(-25 236.799 0.135956)" fill="#170629"/>
<rect x="238.225" y="0.135956" width="0.2" height="2" transform="rotate(-25 238.225 0.135956)" fill="#170629"/>
<rect x="239.652" y="0.135956" width="0.2" height="2" transform="rotate(-25 239.652 0.135956)" fill="#170629"/>
<rect x="241.078" y="0.135956" width="0.2" height="2" transform="rotate(-25 241.078 0.135956)" fill="#170629"/>
<rect x="242.505" y="0.135956" width="0.2" height="2" transform="rotate(-25 242.505 0.135956)" fill="#170629"/>
<rect x="243.931" y="0.135956" width="0.2" height="2" transform="rotate(-25 243.931 0.135956)" fill="#170629"/>
<rect x="245.358" y="0.135956" width="0.2" height="2" transform="rotate(-25 245.358 0.135956)" fill="#170629"/>
<rect x="246.784" y="0.135956" width="0.2" height="2" transform="rotate(-25 246.784 0.135956)" fill="#170629"/>
<rect x="248.211" y="0.135956" width="0.2" height="2" transform="rotate(-25 248.211 0.135956)" fill="#170629"/>
<rect x="249.637" y="0.135956" width="0.2" height="2" transform="rotate(-25 249.637 0.135956)" fill="#170629"/>
<rect x="251.063" y="0.135956" width="0.2" height="2" transform="rotate(-25 251.063 0.135956)" fill="#170629"/>
<rect x="252.49" y="0.135956" width="0.2" height="2" transform="rotate(-25 252.49 0.135956)" fill="#170629"/>
<rect x="253.917" y="0.135956" width="0.2" height="2" transform="rotate(-25 253.917 0.135956)" fill="#170629"/>
<rect x="255.343" y="0.135956" width="0.2" height="2" transform="rotate(-25 255.343 0.135956)" fill="#170629"/>
<rect x="256.77" y="0.135956" width="0.2" height="2" transform="rotate(-25 256.77 0.135956)" fill="#170629"/>
<rect x="258.196" y="0.135956" width="0.2" height="2" transform="rotate(-25 258.196 0.135956)" fill="#170629"/>
<rect x="259.623" y="0.135956" width="0.2" height="2" transform="rotate(-25 259.623 0.135956)" fill="#170629"/>
<rect x="261.049" y="0.135956" width="0.2" height="2" transform="rotate(-25 261.049 0.135956)" fill="#170629"/>
<rect x="262.476" y="0.135956" width="0.2" height="2" transform="rotate(-25 262.476 0.135956)" fill="#170629"/>
<rect x="263.902" y="0.135956" width="0.2" height="2" transform="rotate(-25 263.902 0.135956)" fill="#170629"/>
<rect x="265.329" y="0.135956" width="0.2" height="2" transform="rotate(-25 265.329 0.135956)" fill="#170629"/>
<rect x="266.755" y="0.135956" width="0.2" height="2" transform="rotate(-25 266.755 0.135956)" fill="#170629"/>
<rect x="268.182" y="0.135956" width="0.2" height="2" transform="rotate(-25 268.182 0.135956)" fill="#170629"/>
<rect x="269.608" y="0.135956" width="0.2" height="2" transform="rotate(-25 269.608 0.135956)" fill="#170629"/>
<rect x="271.035" y="0.135956" width="0.2" height="2" transform="rotate(-25 271.035 0.135956)" fill="#170629"/>
</svg>
